<mxfile host="app.diagrams.net" modified="2023-12-15T02:25:46.891Z" agent="Mozilla/5.0 (Macintosh; Intel Mac OS X 10_15_7) AppleWebKit/605.1.15 (KHTML, like Gecko) Version/16.5.2 Safari/605.1.15" version="22.1.9" etag="ljapZved1xICuAHsHew8" type="github">
  <diagram name="第 1 页" id="vRBrCotqGi-v2IlVP0_S">
    <mxGraphModel>
      <root>
        <mxCell id="0" />
        <mxCell id="1" parent="0" />
      </root>
    </mxGraphModel>
  </diagram>
</mxfile>
